<?xml version="1.0" standalone="no"?>
<!DOCTYPE svg PUBLIC "-//W3C//DTD SVG 20010904//EN"
 "http://www.w3.org/TR/2001/REC-SVG-20010904/DTD/svg10.dtd">
<svg version="1.0" xmlns="http://www.w3.org/2000/svg"
 width="1024.000000pt" height="1024.000000pt" viewBox="0 0 1024.000000 1024.000000"
 preserveAspectRatio="xMidYMid meet">

<g transform="translate(0.000000,1024.000000) scale(0.100000,-0.100000)"
fill="#000000" stroke="none">
<path d="M0 5120 l0 -5120 5120 0 5120 0 0 5120 0 5120 -5120 0 -5120 0 0
-5120z m5460 2725 c42 -22 60 -63 60 -137 0 -45 6 -72 20 -95 19 -32 19 -32 0
-38 -11 -4 -20 -11 -20 -16 0 -5 -29 -9 -64 -9 -68 0 -99 -7 -91 -20 9 -15
-15 -22 -30 -10 -12 10 -15 40 -15 139 1 135 8 163 51 187 32 18 54 17 89 -1z
m-563 -8 c12 -7 48 -42 80 -79 32 -37 91 -103 131 -147 41 -45 68 -82 62 -86
-5 -3 -10 1 -10 9 0 12 -7 12 -46 -5 -25 -12 -54 -19 -65 -16 -10 3 -35 -1
-56 -8 l-38 -13 -83 84 c-90 93 -122 137 -122 172 0 30 25 78 47 91 24 14 73
13 100 -2z m-348 -194 c102 -106 249 -266 485 -527 l118 -131 -5 -43 c-5 -45
-23 -78 -23 -42 0 11 4 20 8 20 4 0 8 4 8 9 0 5 -10 7 -22 5 l-23 -5 23 10
c12 6 22 12 22 14 0 3 -47 4 -105 3 -58 0 -105 -4 -105 -8 0 -5 5 -8 10 -8 6
0 10 -8 10 -17 0 -13 3 -14 8 -6 6 10 12 10 28 -2 13 -11 14 -14 4 -13 -9 2
-14 -3 -12 -12 1 -8 -10 -1 -24 15 -15 17 -158 171 -318 344 -160 173 -299
326 -308 340 -35 51 -16 130 36 151 59 24 76 16 185 -97z m1871 -198 c63 -33
60 23 58 -1062 0 -543 -4 -965 -8 -938 -4 28 -8 42 -8 32 -1 -10 -6 -15 -12
-12 -6 4 -10 -5 -10 -19 0 -23 -4 -26 -32 -26 -18 0 -50 -4 -71 -9 -34 -8 -37
-8 -25 7 9 12 6 11 -10 -2 -17 -15 -22 -31 -24 -75 -5 -154 -15 661 -17 1313
l-1 738 34 34 c38 38 77 44 126 19z m-2698 -154 c65 -7 84 -13 125 -44 26 -19
234 -226 462 -459 228 -233 545 -556 705 -718 303 -307 936 -956 1186 -1215
79 -82 218 -225 307 -317 l163 -166 -1 -84 c-1 -45 -4 -116 -8 -157 l-6 -73
-114 118 c-63 66 -291 299 -505 519 -215 220 -454 465 -531 545 -77 80 -273
280 -436 445 -162 165 -446 455 -630 645 -183 190 -422 434 -529 543 l-195
197 -60 -6 c-101 -9 -155 33 -155 121 0 48 21 82 64 101 36 15 53 16 158 5z
m3089 -144 c41 -28 79 -82 79 -113 0 -15 22 -46 63 -87 72 -74 128 -164 159
-257 22 -63 22 -80 24 -545 0 -264 -2 -448 -6 -410 -6 60 -9 65 -14 20 -1 -5
-4 -10 -6 -11 -3 0 -15 -6 -27 -12 -23 -13 -40 -1 -28 18 5 8 11 8 20 0 9 -8
15 -8 20 0 3 5 1 10 -4 10 -6 0 -11 7 -11 15 0 20 -19 19 -27 -1 -5 -13 -7
-13 -14 -2 -7 10 -9 10 -10 -2 0 -10 -3 -8 -9 5 -7 17 -9 15 -9 -12 -1 -18 -4
-33 -8 -34 -5 0 -15 -2 -23 -5 -61 -16 -68 -16 -73 3 -3 10 -5 -81 -6 -202 -2
-252 -7 -381 -16 -395 -3 -6 -11 -10 -16 -10 -6 0 -7 5 -4 11 4 6 -2 5 -13 -2
-12 -7 -19 -16 -16 -20 2 -4 -9 -12 -26 -17 -19 -7 -32 -7 -36 -1 -3 5 -2 9 3
8 4 -1 15 -1 23 0 13 1 13 2 0 11 -10 6 -20 5 -30 -4 -21 -18 -55 -25 -71 -15
-11 7 -15 -13 -19 -109 -4 -64 -7 322 -8 859 -1 537 -5 1043 -8 1125 -6 143
-6 150 15 177 29 35 83 37 132 4z m-3282 -198 c88 -14 113 -29 211 -128 203
-205 465 -484 462 -493 -1 -5 1 -7 6 -4 12 7 49 -35 46 -51 -1 -7 -2 -16 -3
-20 0 -4 -7 1 -14 11 -10 14 -29 19 -78 21 -42 2 -77 9 -102 23 -26 14 -51 19
-80 16 -37 -3 -38 -2 -12 5 l30 9 -30 1 c-17 0 -37 7 -44 14 -10 10 -11 8 -5
-8 7 -18 6 -18 -9 -6 -9 7 -14 18 -10 24 3 5 2 7 -4 4 -5 -3 -77 62 -159 145
-82 82 -169 163 -193 179 -43 28 -50 29 -164 29 -65 0 -127 5 -138 10 -26 14
-49 62 -49 103 0 40 35 96 70 114 31 16 181 17 269 2z m1544 -52 c-3 -5 -11
-6 -18 -3 -7 2 -17 0 -22 -5 -6 -6 -10 -5 -10 4 0 7 11 13 28 12 15 0 25 -4
22 -8z m-45 -30 c14 5 15 3 5 -7 -10 -11 -15 -11 -28 0 -8 7 -15 18 -15 24 0
6 5 3 11 -6 6 -11 16 -15 27 -11z m-1563 -340 c46 -21 638 -604 628 -620 -3
-6 -1 -7 4 -4 6 4 19 -3 29 -15 19 -21 19 -21 -3 -9 -13 6 -23 8 -23 4 0 -4
-5 -2 -12 5 -7 7 -21 12 -32 12 -11 0 -47 10 -80 22 -37 13 -86 22 -126 22
-36 1 -68 6 -72 11 -4 6 -8 2 -8 -7 0 -10 5 -18 10 -18 6 0 10 -5 10 -12 0 -6
-13 1 -30 17 -16 15 -26 33 -23 39 3 6 2 8 -2 3 -5 -4 -81 64 -170 152 -99 99
-175 166 -198 176 -28 12 -65 15 -145 13 -117 -3 -137 3 -173 59 -31 47 -25
90 21 135 l40 40 157 -4 c121 -3 167 -8 198 -21z m866 -314 c17 -20 18 -23 3
-10 -11 9 -23 15 -26 12 -2 -3 -5 2 -5 10 0 19 -1 20 28 -12z m1574 -2134 c77
-79 259 -267 404 -416 163 -168 276 -276 294 -283 17 -5 48 -10 69 -10 101 0
156 -79 109 -156 -30 -49 -80 -67 -170 -62 -127 7 -133 12 -504 392 -183 187
-445 455 -583 596 -300 305 -355 365 -349 373 3 4 2 5 -2 2 -8 -6 -123 105
-123 118 0 5 8 -1 18 -14 31 -37 48 -32 49 13 1 22 7 45 12 52 6 7 8 23 5 37
-4 15 -2 19 3 12 9 -13 38 -12 50 2 4 4 3 5 -3 2 -16 -9 -54 21 -54 44 0 10 7
19 15 19 17 0 17 2 9 24 -3 8 -13 12 -22 9 -13 -4 -14 -3 -3 5 10 8 9 12 -6
23 -11 8 -23 21 -27 29 -8 15 545 -540 809 -811z"/>
<path d="M4900 6980 c0 -5 5 -10 10 -10 6 0 10 5 10 10 0 6 -4 10 -10 10 -5 0
-10 -4 -10 -10z"/>
<path d="M5135 4550 c3 -5 8 -10 11 -10 2 0 4 5 4 10 0 6 -5 10 -11 10 -5 0
-7 -4 -4 -10z"/>
</g>
</svg>
